<svg xmlns="http://www.w3.org/2000/svg" xmlns:xlink="http://www.w3.org/1999/xlink" width="500" zoomAndPan="magnify" viewBox="0 0 375 374.999991" height="500" preserveAspectRatio="xMidYMid meet" version="1.0"><defs><clipPath id="3df6596a40"><path d="M 187.5 0 C 83.945312 0 0 83.945312 0 187.5 C 0 291.054688 83.945312 375 187.5 375 C 291.054688 375 375 291.054688 375 187.5 C 375 83.945312 291.054688 0 187.5 0 Z M 187.5 0 " clip-rule="nonzero"/></clipPath><clipPath id="6b314f640b"><path d="M 51.601562 51.601562 L 323.398438 51.601562 L 323.398438 323.398438 L 51.601562 323.398438 Z M 51.601562 51.601562 " clip-rule="nonzero"/></clipPath><clipPath id="3d22d4e71d"><path d="M 187.5 51.601562 C 112.445312 51.601562 51.601562 112.445312 51.601562 187.5 C 51.601562 262.554688 112.445312 323.398438 187.5 323.398438 C 262.554688 323.398438 323.398438 262.554688 323.398438 187.5 C 323.398438 112.445312 262.554688 51.601562 187.5 51.601562 Z M 187.5 51.601562 " clip-rule="nonzero"/></clipPath><clipPath id="9fd9aed71f"><path d="M 115.078125 104.234375 L 279.527344 104.234375 L 279.527344 271 L 115.078125 271 Z M 115.078125 104.234375 " clip-rule="nonzero"/></clipPath><clipPath id="7d7dbde5ed"><path d="M 279.527344 187.5 L 115.078125 270.765625 L 115.078125 104.234375 Z M 279.527344 187.5 " clip-rule="nonzero"/></clipPath></defs><g clip-path="url(#3df6596a40)"><rect x="-37.5" width="450" fill="#49577c" y="-37.499999" height="449.999989" fill-opacity="1"/></g><g clip-path="url(#6b314f640b)"><g clip-path="url(#3d22d4e71d)"><path fill="#ee2929" d="M 51.601562 51.601562 L 323.398438 51.601562 L 323.398438 323.398438 L 51.601562 323.398438 Z M 51.601562 51.601562 " fill-opacity="1" fill-rule="nonzero"/></g></g><g clip-path="url(#9fd9aed71f)"><g clip-path="url(#7d7dbde5ed)"><path fill="#ffffff" d="M 279.527344 104.234375 L 279.527344 270.609375 L 115.078125 270.609375 L 115.078125 104.234375 Z M 279.527344 104.234375 " fill-opacity="1" fill-rule="nonzero"/></g></g></svg>